<svg id="_1" data-name="1" xmlns="http://www.w3.org/2000/svg" viewBox="0 0 230.85 163.125"><title>balefire-marketing-advertising-v</title><path d="M116.318,1.014A45.541,45.541,0,0,0,92.993,85.668C79.814,74.236,84,51.528,91.544,43.347c.175,0-.963,5.617,5.458,10.683-.341,0-5.572-20.586,9.958-26.467.175,0-3.71,10.456.678,14.213-.168,0,.31-21.565,17.036-35.783,0,0-5.211,7.354.194,25.98-.17.165,3.856-6.646,9.729-6.045-.648.1-5.941,3.158-.942,21.076,0,0,4.629-7.1,10.878-5.8,0,0-6.6,7.6-1.977,17.117,2.669,5.486,6.381,21-6.105,29.079a45.542,45.542,0,0,0-20.133-86.39Z" transform="translate(-1.575 -1.014)" style="fill:#fbac45"/><path d="M29.555,123.128q2.531,2.212,2.529,6.626,0,6.45-4.62,9.095t-12.93,2.643H1.575V101.221H12.967q8.481,0,12.956,2.412a8.271,8.271,0,0,1,4.476,7.875,7.846,7.846,0,0,1-2.123,5.723,10.617,10.617,0,0,1-5.258,2.934A13.532,13.532,0,0,1,29.555,123.128Zm-18.448-5.809H14.65q6.043,0,6.043-4.881a3.76,3.76,0,0,0-1.625-3.459,10.1,10.1,0,0,0-5.172-1.016H11.107Zm9.209,16.125q1.947-1.134,1.946-4.213,0-5.577-6.972-5.578H11.107v10.925h3.485A11.579,11.579,0,0,0,20.316,133.444Z" transform="translate(-1.575 -1.014)" style="fill:#302824"/><path d="M43.355,132.834l-2.034,8.658H31.442l12.144-40.271H55.15L67.3,141.492H57.184l-2.034-8.658Zm5.869-24.7-4.242,17.782h8.483Z" transform="translate(-1.575 -1.014)" style="fill:#302824"/><path d="M95.724,133.937l-.986,7.555H70.5V101.221h9.532v32.716Z" transform="translate(-1.575 -1.014)" style="fill:#302824"/><path d="M107.754,108.021v9.647h12.377v6.682H107.754v10.286h15.167v6.856h-24.7V101.221h24.7l-.988,6.8Z" transform="translate(-1.575 -1.014)" style="fill:#302824"/><path d="M138,108.021v10.692h11.739v6.8H138v15.979h-9.53V101.221h24l-.986,6.8Z" transform="translate(-1.575 -1.014)" style="fill:#302824"/><path d="M157.116,141.492V101.221h9.532v40.271Z" transform="translate(-1.575 -1.014)" style="fill:#302824"/><path d="M182.976,126.093v15.4h-9.531V101.221h13.193q8.251,0,12.405,3.023t4.155,9.24a10.67,10.67,0,0,1-1.86,6.449,14.661,14.661,0,0,1-5.868,4.417L205.7,141.492H194.946l-8.252-15.4Zm4.009-6.566a6.922,6.922,0,0,0,4.795-1.453,5.925,5.925,0,0,0,1.6-4.59,5.045,5.045,0,0,0-1.713-4.242,8.517,8.517,0,0,0-5.259-1.338h-3.429v11.623Z" transform="translate(-1.575 -1.014)" style="fill:#302824"/><path d="M217.257,108.021v9.647h12.377v6.682H217.257v10.286h15.168v6.856h-24.7V101.221h24.7l-.99,6.8Z" transform="translate(-1.575 -1.014)" style="fill:#302824"/><path d="M9.832,152.975h.9v1.345h.044a2.787,2.787,0,0,1,2.614-1.578,2.221,2.221,0,0,1,2.291,1.563,2.69,2.69,0,0,1,2.532-1.563c1.751,0,2.647.913,2.647,2.8v5.413h-.973v-5.368c0-1.313-.5-2.024-1.89-2.024-1.683,0-2.162,1.39-2.162,2.875v4.517h-.976v-5.413c.017-1.083-.433-1.979-1.671-1.979-1.683,0-2.365,1.269-2.379,2.937v4.455H9.832Z" transform="translate(-1.575 -1.014)" style="fill:#726658"/><path d="M25.914,155.419c.091-1.872,1.406-2.677,3.231-2.677,1.408,0,2.938.434,2.938,2.569v4.236a.518.518,0,0,0,.572.588.936.936,0,0,0,.309-.062v.819a2.633,2.633,0,0,1-.635.063c-.989,0-1.143-.558-1.143-1.392h-.03a3.043,3.043,0,0,1-2.907,1.623c-1.472,0-2.677-.726-2.677-2.335,0-2.243,2.181-2.32,4.283-2.566.8-.095,1.254-.2,1.254-1.083,0-1.315-.945-1.639-2.087-1.639-1.208,0-2.1.556-2.135,1.856Zm5.2,1.175h-.03c-.126.231-.558.309-.819.354-1.655.295-3.713.28-3.713,1.842a1.661,1.661,0,0,0,1.778,1.576,2.566,2.566,0,0,0,2.784-2.5Z" transform="translate(-1.575 -1.014)" style="fill:#726658"/><path d="M37.359,152.975h.9v1.87h.03a2.951,2.951,0,0,1,3.017-1.979v.975a2.749,2.749,0,0,0-2.971,2.86v4.254h-.975Z" transform="translate(-1.575 -1.014)" style="fill:#726658"/><path d="M45.59,149.912h.975v6.929l4.423-3.866h1.3l-3.4,2.953,3.634,5.027H51.3l-3.157-4.347-1.576,1.314v3.033H45.59Z" transform="translate(-1.575 -1.014)" style="fill:#726658"/><path d="M56.873,157.228c.016,1.423.758,3.138,2.63,3.138a2.431,2.431,0,0,0,2.505-2.041h.972a3.255,3.255,0,0,1-3.477,2.861c-2.537,0-3.6-1.948-3.6-4.222,0-2.1,1.067-4.222,3.6-4.222,2.565,0,3.587,2.242,3.51,4.486Zm5.167-.82a2.684,2.684,0,0,0-2.537-2.845c-1.592,0-2.475,1.39-2.63,2.845Z" transform="translate(-1.575 -1.014)" style="fill:#726658"/><path d="M69.056,152.975h1.625v.819H69.056v5.381c0,.635.093,1,.787,1.053a7.608,7.608,0,0,0,.838-.048v.837c-.293,0-.573.029-.869.029-1.3,0-1.746-.432-1.732-1.792v-5.46H66.69v-.819h1.39v-2.4h.976Z" transform="translate(-1.575 -1.014)" style="fill:#726658"/><path d="M75.229,149.912H76.2v1.564h-.973Zm0,3.063H76.2v7.98h-.973Z" transform="translate(-1.575 -1.014)" style="fill:#726658"/><path d="M81.316,152.975h.973v1.375h.03a2.71,2.71,0,0,1,2.551-1.608c2.244,0,2.924,1.176,2.924,3.078v5.135h-.973v-4.981c0-1.375-.449-2.411-2.028-2.411a2.519,2.519,0,0,0-2.5,2.737v4.655h-.973Z" transform="translate(-1.575 -1.014)" style="fill:#726658"/><path d="M99.635,160.305c-.013,2.381-.927,3.834-3.541,3.834-1.592,0-3.17-.71-3.309-2.411h.975a2.1,2.1,0,0,0,2.334,1.592c1.8,0,2.566-1.066,2.566-3.015v-1.083h-.028a2.77,2.77,0,0,1-2.538,1.64c-2.551,0-3.6-1.825-3.6-4.1,0-2.195,1.3-4.021,3.6-4.021a2.815,2.815,0,0,1,2.538,1.608h.028v-1.375h.975Zm-.975-3.434c0-1.56-.726-3.308-2.566-3.308-1.857,0-2.63,1.653-2.63,3.308,0,1.608.836,3.171,2.63,3.171C97.777,160.042,98.66,158.5,98.66,156.871Z" transform="translate(-1.575 -1.014)" style="fill:#726658"/><path d="M109.507,153.129h2.228v2.8h2.782v2.228h-2.782v2.8h-2.228v-2.8h-2.784v-2.228h2.784Z" transform="translate(-1.575 -1.014)" style="fill:#db4a27"/><path d="M121.514,155.419c.09-1.872,1.405-2.677,3.23-2.677,1.409,0,2.938.434,2.938,2.569v4.236a.52.52,0,0,0,.572.588.947.947,0,0,0,.31-.062v.819a2.636,2.636,0,0,1-.636.063c-.989,0-1.142-.558-1.142-1.392h-.03a3.044,3.044,0,0,1-2.908,1.623c-1.469,0-2.675-.726-2.675-2.335,0-2.243,2.181-2.32,4.283-2.566.8-.095,1.253-.2,1.253-1.083,0-1.315-.943-1.639-2.088-1.639-1.208,0-2.1.556-2.135,1.856Zm5.2,1.175h-.03c-.126.231-.559.309-.82.354-1.654.295-3.713.28-3.713,1.842a1.662,1.662,0,0,0,1.779,1.576,2.567,2.567,0,0,0,2.784-2.5Z" transform="translate(-1.575 -1.014)" style="fill:#726658"/><path d="M139.856,160.955h-.9v-1.517h-.029a3.165,3.165,0,0,1-2.848,1.748c-2.427,0-3.587-1.964-3.587-4.222s1.16-4.222,3.587-4.222a2.848,2.848,0,0,1,2.769,1.748h.03v-4.578h.975Zm-3.774-.589c2.075,0,2.8-1.747,2.8-3.4s-.724-3.4-2.8-3.4c-1.855,0-2.614,1.748-2.614,3.4S134.227,160.366,136.082,160.366Z" transform="translate(-1.575 -1.014)" style="fill:#726658"/><path d="M144.167,152.975h1.082l2.5,7h.033l2.475-7h1.005l-2.986,7.98h-1.036Z" transform="translate(-1.575 -1.014)" style="fill:#726658"/><path d="M155.878,157.228c.018,1.423.759,3.138,2.63,3.138a2.433,2.433,0,0,0,2.507-2.041h.973a3.259,3.259,0,0,1-3.48,2.861c-2.535,0-3.6-1.948-3.6-4.222,0-2.1,1.068-4.222,3.6-4.222,2.567,0,3.587,2.242,3.51,4.486Zm5.167-.82a2.685,2.685,0,0,0-2.537-2.845c-1.592,0-2.474,1.39-2.63,2.845Z" transform="translate(-1.575 -1.014)" style="fill:#726658"/><path d="M166.692,152.975h.9v1.87h.033a2.949,2.949,0,0,1,3.015-1.979v.975a2.749,2.749,0,0,0-2.971,2.86v4.254h-.975Z" transform="translate(-1.575 -1.014)" style="fill:#726658"/><path d="M176.836,152.975h1.625v.819h-1.625v5.381c0,.635.1,1,.789,1.053a7.586,7.586,0,0,0,.836-.048v.837c-.293,0-.573.029-.868.029-1.3,0-1.746-.432-1.732-1.792v-5.46h-1.39v-.819h1.39v-2.4h.975Z" transform="translate(-1.575 -1.014)" style="fill:#726658"/><path d="M183.01,149.912h.972v1.564h-.972Zm0,3.063h.972v7.98h-.972Z" transform="translate(-1.575 -1.014)" style="fill:#726658"/><path d="M193.88,155.311a1.836,1.836,0,0,0-2.088-1.748c-.864,0-1.885.339-1.885,1.376,0,.866.989,1.175,1.654,1.346l1.3.293a2.339,2.339,0,0,1,2.271,2.212c0,1.731-1.718,2.4-3.2,2.4-1.855,0-3.121-.866-3.274-2.814h.97a2.1,2.1,0,0,0,2.353,1.994c.911,0,2.179-.4,2.179-1.515,0-.929-.866-1.237-1.748-1.454l-1.252-.277c-1.266-.34-2.228-.775-2.228-2.136,0-1.623,1.592-2.242,3-2.242a2.619,2.619,0,0,1,2.924,2.569Z" transform="translate(-1.575 -1.014)" style="fill:#726658"/><path d="M199.851,149.912h.97v1.564h-.97Zm0,3.063h.97v7.98h-.97Z" transform="translate(-1.575 -1.014)" style="fill:#726658"/><path d="M205.935,152.975h.973v1.375h.033a2.707,2.707,0,0,1,2.551-1.608c2.244,0,2.923,1.176,2.923,3.078v5.135h-.972v-4.981c0-1.375-.45-2.411-2.028-2.411a2.52,2.52,0,0,0-2.507,2.737v4.655h-.973Z" transform="translate(-1.575 -1.014)" style="fill:#726658"/><path d="M224.256,160.305c-.013,2.381-.926,3.834-3.54,3.834-1.592,0-3.17-.71-3.31-2.411h.976a2.1,2.1,0,0,0,2.334,1.592c1.795,0,2.565-1.066,2.565-3.015v-1.083h-.028a2.768,2.768,0,0,1-2.537,1.64c-2.551,0-3.6-1.825-3.6-4.1,0-2.195,1.3-4.021,3.6-4.021a2.806,2.806,0,0,1,2.537,1.608h.028v-1.375h.975Zm-.975-3.434c0-1.56-.724-3.308-2.565-3.308-1.857,0-2.63,1.653-2.63,3.308,0,1.608.836,3.171,2.63,3.171C222.4,160.042,223.281,158.5,223.281,156.871Z" transform="translate(-1.575 -1.014)" style="fill:#726658"/><path d="M131.846,66.16c-.1-.007-1.01,5.812-5.452,5.846.2,0,3.546-12.035-2.926-17.054,0,0,.953,8.013-3.065,9.643.1,0,1.827-12.174-8.177-19.976,0,0,2.213,4.866-1.718,13.862.1.1-3.154-3.693-6.644-3.434.108-.09,3.806,2.706,1.183,12.07,0,0-2.574-4.268-6.263-3.631a9.508,9.508,0,0,1,.793,10.078c-1.895,3.572-4.8,13.454,6.317,17.319a45.538,45.538,0,0,0,17.826.605C137.218,87.466,136.769,71.894,131.846,66.16Z" transform="translate(-1.575 -1.014)" style="fill:#db4926"/></svg>