<svg id="Layer_1" data-name="Layer 1" xmlns="http://www.w3.org/2000/svg" xmlns:xlink="http://www.w3.org/1999/xlink" viewBox="0 0 60 60"><defs><radialGradient id="radial-gradient" cx="17.405" cy="2.125" r="60.535" gradientTransform="matrix(1, 0, 0, -1, 0, 62)" gradientUnits="userSpaceOnUse"><stop offset="0" stop-color="#ffd776"/><stop offset="0.246" stop-color="#f3a554"/><stop offset="0.379" stop-color="#f15c3c"/><stop offset="0.539" stop-color="#d94867"/><stop offset="0.7" stop-color="#c32f87"/><stop offset="0.912" stop-color="#7d63a7"/><stop offset="0.985" stop-color="#5c6cb3"/></radialGradient><radialGradient id="radial-gradient-2" cx="23.521" cy="16.659" r="31.086" gradientTransform="matrix(1, 0, 0, -1, 0, 62)" gradientUnits="userSpaceOnUse"><stop offset="0" stop-color="#ffd776"/><stop offset="0.246" stop-color="#f3a554"/><stop offset="0.379" stop-color="#f15c3c"/><stop offset="0.607" stop-color="#d94867"/><stop offset="0.835" stop-color="#c32f87"/><stop offset="0.958" stop-color="#7d63a7"/><stop offset="1" stop-color="#5c6cb3"/></radialGradient><radialGradient id="radial-gradient-3" cx="44.495" cy="44.443" r="7.264" gradientTransform="matrix(1, 0, 0, -1, 0, 62)" gradientUnits="userSpaceOnUse"><stop offset="0" stop-color="#5f6db3"/><stop offset="1" stop-color="#5c6cb3"/></radialGradient></defs><title>icon-instagram</title><path d="M58.423,10.34a14.658,14.658,0,0,0-3.454-5.309A14.658,14.658,0,0,0,49.66,1.577,21.91,21.91,0,0,0,42.38.185C39.181.046,38.161,0,30,0S20.819.023,17.62.185a21.781,21.781,0,0,0-7.28,1.392A14.658,14.658,0,0,0,5.031,5.031,14.658,14.658,0,0,0,1.577,10.34,21.91,21.91,0,0,0,.185,17.62C.046,20.819,0,21.839,0,30s.023,9.181.185,12.38a21.781,21.781,0,0,0,1.392,7.28,14.658,14.658,0,0,0,3.454,5.309,14.658,14.658,0,0,0,5.309,3.454,21.91,21.91,0,0,0,7.28,1.392c3.2.139,4.219.185,12.38.185s9.181-.023,12.38-.185a21.781,21.781,0,0,0,7.28-1.392,15.292,15.292,0,0,0,8.763-8.763,21.91,21.91,0,0,0,1.392-7.28c.139-3.2.185-4.219.185-12.38s-.023-9.181-.185-12.38A21.781,21.781,0,0,0,58.423,10.34Zm-4.01,31.785a16.372,16.372,0,0,1-1.044,5.564,9.3,9.3,0,0,1-2.248,3.455,9.413,9.413,0,0,1-3.455,2.249A16.54,16.54,0,0,1,42.1,54.436c-3.176.139-4.1.185-12.125.185s-8.972-.023-12.125-.185a16.412,16.412,0,0,1-5.565-1.043,9.3,9.3,0,0,1-3.454-2.249,9.4,9.4,0,0,1-2.249-3.455,16.54,16.54,0,0,1-1.043-5.564C5.4,38.949,5.355,38,5.355,30s.024-8.972.186-12.125a16.4,16.4,0,0,1,1.043-5.564A9.3,9.3,0,0,1,8.833,8.856a9.4,9.4,0,0,1,3.454-2.249,16.547,16.547,0,0,1,5.565-1.043c3.176-.139,4.126-.185,12.125-.185s8.972.023,12.125.185a16.4,16.4,0,0,1,5.564,1.043,9.314,9.314,0,0,1,3.455,2.249,9.39,9.39,0,0,1,2.248,3.455,16.507,16.507,0,0,1,1.044,5.564C54.552,21.051,54.6,22,54.6,30S54.552,38.972,54.413,42.125Z" transform="translate(0 0)" style="fill:url(#radial-gradient)"/><path d="M29.977,14.583A15.417,15.417,0,1,0,45.394,30,15.425,15.425,0,0,0,29.977,14.583Zm0,25.432A10.015,10.015,0,1,1,39.992,30,10.018,10.018,0,0,1,29.977,40.015Z" transform="translate(0 0)" style="fill:url(#radial-gradient-2)"/><circle cx="45.997" cy="13.98" r="3.594" style="fill:url(#radial-gradient-3)"/></svg>