<svg id="Layer_1" data-name="Layer 1" xmlns="http://www.w3.org/2000/svg" viewBox="0 0 59.999 41.807"><title>icon-twitter</title><path d="M47.993,16a.545.545,0,0,1-.113-.1,10.866,10.866,0,0,0-7.911-2.84l-.093-.205a.067.067,0,0,1,.056-.019c2.749-.6,4.376-1.218,4.862-1.889.169-.543-.036-.841-.636-.916a16.319,16.319,0,0,0-3.8.878c1.442-.878,2-1.495,1.684-1.815a7.593,7.593,0,0,0-4.565,2.1c.6-.974.824-1.5.675-1.591a12.906,12.906,0,0,0-2.02,1.626A30.783,30.783,0,0,0,33.2,14.8l-.037.094a31.159,31.159,0,0,0-4.078,9.015l-.3.226-.056.053a15.091,15.091,0,0,0-4.208-3.481,50.654,50.654,0,0,0-6.921-3.5A60.457,60.457,0,0,0,8.79,13.7c-.017,3.162,1.609,5.685,4.845,7.519v.056a10.8,10.8,0,0,0-3.311.468q.309,4.4,6.547,6.077l-.02.056a4.889,4.889,0,0,0-4.021,1.573c1.366,2.544,3.778,3.758,7.277,3.665a4.908,4.908,0,0,0-1.59,1.123,2.244,2.244,0,0,0-.636,2.244c.747,1.29,2.094,1.887,4.077,1.8h0l.112.131-.056.055a15.482,15.482,0,0,1-12.4,4.565l-.075.037C6.584,43.042,3.423,41.7,0,39a29.323,29.323,0,0,0,13.654,10.25,33.91,33.91,0,0,0,19.4.447h.112A30.835,30.835,0,0,0,49.114,39.1a20.955,20.955,0,0,0,3.8-8.044c3.272.112,5.629-.785,7.088-2.691l-.036-.058c-1.086.373-3.218.263-6.38-.354v-.338c0-.016,0-.016.02,0,3.46-.373,5.5-1.438,6.153-3.2a10.124,10.124,0,0,1-7.146.077A14.431,14.431,0,0,0,47.993,16Z" transform="translate(0 -9.096)" style="fill:#1da1f2"/></svg>