<svg id="Layer_1" data-name="Layer 1" xmlns="http://www.w3.org/2000/svg" viewBox="0 0 60 57.351"><title>icon-linkedin</title><path d="M33.6,25.592v-.134c-.028.045-.058.089-.086.134Z" transform="translate(0 -1.325)" style="fill:#007bb5"/><path d="M13.621,58.675H.758V19.981H13.621ZM7.191,14.7H7.106C2.79,14.7,0,11.723,0,8.01c0-3.8,2.877-6.685,7.276-6.685s7.107,2.889,7.193,6.685C14.469,11.723,11.675,14.7,7.191,14.7ZM60,58.675H47.139v-20.7c0-5.2-1.86-8.748-6.515-8.748a7.043,7.043,0,0,0-6.6,4.7,8.8,8.8,0,0,0-.422,3.137v21.61H20.739s.168-35.067,0-38.694H33.6v5.477A12.769,12.769,0,0,1,45.2,19.068C53.656,19.068,60,24.6,60,36.488Z" transform="translate(0 -1.325)" style="fill:#007bb5"/></svg>