<svg xmlns="http://www.w3.org/2000/svg" viewBox="0 0 321.03 86.79"><defs><style>.cls-1{fill:#302824;}.cls-2{fill:#726658;}.cls-3{fill:#db4a27;}.cls-4{fill:#fbac45;}.cls-5{fill:#db4926;}</style></defs><g id="Layer_2" data-name="Layer 2"><g id="Layer_1-2" data-name="Layer 1"><path class="cls-1" d="M127.71,42.46c1.61,1.4,2.41,3.51,2.41,6.31q0,6.15-4.4,8.67T113.4,60H101.05V21.58h10.86q8.07,0,12.34,2.3a7.88,7.88,0,0,1,4.27,7.51,7.5,7.5,0,0,1-2,5.45,10.19,10.19,0,0,1-5,2.8A12.87,12.87,0,0,1,127.71,42.46Zm-17.58-5.54h3.38q5.76,0,5.76-4.65A3.57,3.57,0,0,0,117.72,29a9.59,9.59,0,0,0-4.93-1h-2.66Zm8.78,15.37c1.24-.72,1.85-2.06,1.85-4q0-5.31-6.64-5.31h-4V53.37h3.32A11.07,11.07,0,0,0,118.91,52.29Z"/><path class="cls-1" d="M140.86,51.71,138.93,60h-9.42l11.57-38.38h11L163.68,60H154l-1.94-8.25Zm5.6-23.54-4.05,16.95h8.09Z"/><path class="cls-1" d="M190.77,52.76l-.94,7.2h-23.1V21.58h9.09V52.76Z"/><path class="cls-1" d="M202.23,28.06v9.2H214v6.36H202.23v9.8h14.45V60H193.15V21.58h23.53l-.94,6.48Z"/><path class="cls-1" d="M231.05,28.06V38.25h11.19v6.48H231.05V60H222V21.58h22.87l-.94,6.48Z"/><path class="cls-1" d="M249.27,60V21.58h9.08V60Z"/><path class="cls-1" d="M273.91,45.28V60h-9.08V21.58H277.4c5.24,0,9.18,1,11.82,2.88s4,4.86,4,8.81a10.17,10.17,0,0,1-1.77,6.14,14,14,0,0,1-5.59,4.21L295.56,60H285.32l-7.86-14.68ZM277.73,39a6.58,6.58,0,0,0,4.57-1.39,5.61,5.61,0,0,0,1.52-4.37,4.79,4.79,0,0,0-1.63-4,8.1,8.1,0,0,0-5-1.28h-3.27V39Z"/><path class="cls-1" d="M306.58,28.06v9.2h11.79v6.36H306.58v9.8H321V60H297.5V21.58H321l-.94,6.48Z"/><path class="cls-2" d="M108.92,70.9h.85v1.28h0a2.65,2.65,0,0,1,2.49-1.5,2.12,2.12,0,0,1,2.18,1.49,2.56,2.56,0,0,1,2.41-1.49c1.67,0,2.52.87,2.52,2.67V78.5h-.92V73.39c0-1.25-.47-1.93-1.8-1.93-1.61,0-2.06,1.33-2.06,2.74v4.3h-.93V73.35c0-1-.42-1.89-1.59-1.89-1.61,0-2.26,1.21-2.27,2.8V78.5h-.93Z"/><path class="cls-2" d="M124.24,73.23c.09-1.78,1.34-2.55,3.08-2.55,1.34,0,2.8.41,2.8,2.45v4a.49.49,0,0,0,.54.56.84.84,0,0,0,.3-.06v.78a2.29,2.29,0,0,1-.61.06c-.94,0-1.08-.53-1.08-1.32h0a2.91,2.91,0,0,1-2.77,1.55c-1.41,0-2.55-.7-2.55-2.23,0-2.14,2.07-2.21,4.08-2.45.76-.08,1.19-.19,1.19-1,0-1.25-.9-1.56-2-1.56s-2,.53-2,1.77Zm5,1.12h0c-.12.22-.53.29-.78.34-1.58.28-3.54.26-3.54,1.75a1.58,1.58,0,0,0,1.7,1.5,2.44,2.44,0,0,0,2.65-2.38Z"/><path class="cls-2" d="M135.15,70.9H136v1.78h0a2.82,2.82,0,0,1,2.88-1.88v.93a2.62,2.62,0,0,0-2.83,2.72v4h-.93Z"/><path class="cls-2" d="M143,68h.93v6.6l4.21-3.68h1.24l-3.24,2.82,3.46,4.78h-1.16l-3-4.14-1.5,1.26V78.5H143Z"/><path class="cls-2" d="M153.74,75c0,1.36.73,3,2.51,3A2.32,2.32,0,0,0,158.64,76h.92a3.11,3.11,0,0,1-3.31,2.73c-2.42,0-3.44-1.86-3.44-4,0-2,1-4,3.44-4s3.42,2.14,3.34,4.27Zm4.93-.78a2.56,2.56,0,0,0-2.42-2.71,2.7,2.7,0,0,0-2.51,2.71Z"/><path class="cls-2" d="M165.35,70.9h1.55v.78h-1.55v5.13c0,.6.09,1,.75,1a7.14,7.14,0,0,0,.8,0v.79c-.28,0-.55,0-.83,0-1.24,0-1.66-.41-1.65-1.71v-5.2h-1.33V70.9h1.33V68.62h.93Z"/><path class="cls-2" d="M171.23,68h.93v1.49h-.93Zm0,2.92h.93v7.6h-.93Z"/><path class="cls-2" d="M177,70.9H178v1.31h0a2.58,2.58,0,0,1,2.43-1.53c2.14,0,2.78,1.12,2.78,2.93V78.5h-.92V73.76c0-1.31-.43-2.3-1.93-2.3A2.4,2.4,0,0,0,178,74.07V78.5H177Z"/><path class="cls-2" d="M194.49,77.89c0,2.26-.88,3.65-3.37,3.65-1.52,0-3-.68-3.16-2.3h.93a2,2,0,0,0,2.23,1.52c1.7,0,2.44-1,2.44-2.87v-1h0a2.64,2.64,0,0,1-2.41,1.57c-2.44,0-3.44-1.74-3.44-3.91s1.24-3.83,3.44-3.83a2.67,2.67,0,0,1,2.41,1.53h0V70.9h.93Zm-.93-3.28c0-1.48-.69-3.15-2.44-3.15s-2.51,1.58-2.51,3.15.8,3,2.51,3S193.56,76.16,193.56,74.61Z"/><path class="cls-3" d="M203.9,71.05H206v2.67h2.65v2.12H206V78.5H203.9V75.84h-2.65V73.72h2.65Z"/><path class="cls-2" d="M215.34,73.23c.09-1.78,1.34-2.55,3.08-2.55,1.34,0,2.8.41,2.8,2.45v4a.49.49,0,0,0,.54.56.89.89,0,0,0,.3-.06v.78a2.29,2.29,0,0,1-.61.06c-.94,0-1.09-.53-1.09-1.32h0a2.89,2.89,0,0,1-2.77,1.55c-1.4,0-2.55-.7-2.55-2.23,0-2.14,2.08-2.21,4.09-2.45.76-.08,1.19-.19,1.19-1,0-1.25-.9-1.56-2-1.56s-2,.53-2,1.77Zm4.95,1.12h0c-.12.22-.53.29-.78.34-1.58.28-3.54.26-3.54,1.75a1.58,1.58,0,0,0,1.7,1.5,2.45,2.45,0,0,0,2.65-2.38Z"/><path class="cls-2" d="M232.82,78.5H232V77.06h0a3,3,0,0,1-2.72,1.67c-2.31,0-3.41-1.88-3.41-4s1.1-4,3.41-4a2.71,2.71,0,0,1,2.64,1.66h0V68h.93Zm-3.6-.56c2,0,2.67-1.66,2.67-3.24s-.69-3.24-2.67-3.24c-1.76,0-2.49,1.67-2.49,3.24S227.46,77.94,229.22,77.94Z"/><path class="cls-2" d="M236.93,70.9h1l2.38,6.68h0l2.36-6.68h1l-2.85,7.6h-1Z"/><path class="cls-2" d="M248.09,75c0,1.36.72,3,2.5,3A2.31,2.31,0,0,0,253,76h.93a3.11,3.11,0,0,1-3.32,2.73c-2.41,0-3.43-1.86-3.43-4,0-2,1-4,3.43-4S254,72.82,253.94,75Zm4.92-.78a2.56,2.56,0,0,0-2.42-2.71,2.7,2.7,0,0,0-2.5,2.71Z"/><path class="cls-2" d="M258.39,70.9h.86v1.78h0a2.8,2.8,0,0,1,2.87-1.88v.93a2.62,2.62,0,0,0-2.83,2.72v4h-.93Z"/><path class="cls-2" d="M268.06,70.9h1.54v.78h-1.54v5.13c0,.6.09,1,.75,1a7,7,0,0,0,.79,0v.79c-.28,0-.54,0-.82,0-1.24,0-1.67-.41-1.65-1.71v-5.2H265.8V70.9h1.33V68.62h.93Z"/><path class="cls-2" d="M273.94,68h.93v1.49h-.93Zm0,2.92h.93v7.6h-.93Z"/><path class="cls-2" d="M284.29,73.13a1.74,1.74,0,0,0-2-1.67c-.83,0-1.8.32-1.8,1.31,0,.83.94,1.12,1.58,1.28l1.23.28a2.25,2.25,0,0,1,2.17,2.11c0,1.65-1.64,2.29-3.05,2.29-1.77,0-3-.83-3.12-2.69h.92a2,2,0,0,0,2.24,1.9c.87,0,2.08-.38,2.08-1.44,0-.88-.82-1.18-1.66-1.38l-1.2-.27c-1.2-.32-2.12-.74-2.12-2,0-1.55,1.52-2.14,2.86-2.14a2.49,2.49,0,0,1,2.78,2.45Z"/><path class="cls-2" d="M290,68h.92v1.49H290Zm0,2.92h.92v7.6H290Z"/><path class="cls-2" d="M295.79,70.9h.92v1.31h0a2.59,2.59,0,0,1,2.43-1.53c2.14,0,2.79,1.12,2.79,2.93V78.5H301V73.76c0-1.31-.43-2.3-1.93-2.3a2.41,2.41,0,0,0-2.39,2.61V78.5h-.92Z"/><path class="cls-2" d="M313.24,77.89c0,2.26-.88,3.65-3.37,3.65-1.52,0-3-.68-3.16-2.3h.93a2,2,0,0,0,2.23,1.52c1.71,0,2.44-1,2.44-2.87v-1h0a2.65,2.65,0,0,1-2.42,1.57c-2.43,0-3.44-1.74-3.44-3.91s1.24-3.83,3.44-3.83a2.69,2.69,0,0,1,2.42,1.53h0V70.9h.93Zm-.93-3.28c0-1.48-.69-3.15-2.44-3.15s-2.51,1.58-2.51,3.15.8,3,2.51,3S312.31,76.16,312.31,74.61Z"/><path class="cls-4" d="M43.39,0A43.4,43.4,0,0,0,21.16,80.67C8.61,69.77,12.6,48.13,19.79,40.34c.16,0-.92,5.35,5.2,10.18-.33,0-5.31-19.62,9.49-25.22.16,0-3.54,10,.64,13.54-.16,0,.3-20.55,16.24-34.1,0,0-5,7,.18,24.76-.16.16,3.68-6.33,9.27-5.76-.62.1-5.66,3-.9,20.08,0,0,4.42-6.76,10.37-5.52,0,0-6.29,7.24-1.88,16.31,2.54,5.23,6.08,20-5.82,27.71A43.4,43.4,0,0,0,43.39,0Z"/><path class="cls-5" d="M58.19,62.08c-.09,0-1,5.54-5.19,5.57.18,0,3.37-11.47-2.79-16.25,0,0,.9,7.63-2.92,9.19.1,0,1.74-11.6-7.79-19,0,0,2.1,4.64-1.64,13.21.09.1-3-3.52-6.33-3.27.1-.09,3.62,2.58,1.12,11.5,0,0-2.45-4.07-6-3.46a9,9,0,0,1,.76,9.6c-1.8,3.41-4.57,12.82,6,16.51a43.88,43.88,0,0,0,9.93,1.15,43.21,43.21,0,0,0,7.06-.58C63.31,82.38,62.88,67.54,58.19,62.08Z"/></g></g></svg>